<mxfile host="app.diagrams.net" modified="2024-07-25T04:49:17.314Z" agent="Mozilla/5.0 (Macintosh; Intel Mac OS X 10_15_7) AppleWebKit/537.36 (KHTML, like Gecko) Chrome/126.0.0.0 Safari/537.36" etag="mwYadAy1BNA5IWa6Tc0y" version="24.6.4" type="device">
  <diagram name="Page-1" id="m90n152Sgidp1Vkj_W1F">
    <mxGraphModel dx="954" dy="513" grid="1" gridSize="10" guides="1" tooltips="1" connect="1" arrows="1" fold="1" page="1" pageScale="1" pageWidth="827" pageHeight="1169" math="0" shadow="0">
      <root>
        <mxCell id="0" />
        <mxCell id="1" parent="0" />
        <mxCell id="EUVCZY_uh-M4FHh08Wyi-1" value="ABC RESEARCH CENTER" style="rounded=0;whiteSpace=wrap;html=1;" vertex="1" parent="1">
          <mxGeometry x="40" y="20" width="760" height="60" as="geometry" />
        </mxCell>
        <mxCell id="EUVCZY_uh-M4FHh08Wyi-2" value="RESEARCH LAB" style="swimlane;fontStyle=0;childLayout=stackLayout;horizontal=1;startSize=30;horizontalStack=0;resizeParent=1;resizeParentMax=0;resizeLast=0;collapsible=1;marginBottom=0;whiteSpace=wrap;html=1;" vertex="1" parent="1">
          <mxGeometry x="40" y="550" width="140" height="90" as="geometry" />
        </mxCell>
        <mxCell id="EUVCZY_uh-M4FHh08Wyi-3" value="&lt;u&gt;Lab_ID&lt;/u&gt;" style="text;strokeColor=none;fillColor=none;align=left;verticalAlign=middle;spacingLeft=4;spacingRight=4;overflow=hidden;points=[[0,0.5],[1,0.5]];portConstraint=eastwest;rotatable=0;whiteSpace=wrap;html=1;" vertex="1" parent="EUVCZY_uh-M4FHh08Wyi-2">
          <mxGeometry y="30" width="140" height="30" as="geometry" />
        </mxCell>
        <mxCell id="EUVCZY_uh-M4FHh08Wyi-4" value="Location" style="text;strokeColor=none;fillColor=none;align=left;verticalAlign=middle;spacingLeft=4;spacingRight=4;overflow=hidden;points=[[0,0.5],[1,0.5]];portConstraint=eastwest;rotatable=0;whiteSpace=wrap;html=1;" vertex="1" parent="EUVCZY_uh-M4FHh08Wyi-2">
          <mxGeometry y="60" width="140" height="30" as="geometry" />
        </mxCell>
        <mxCell id="EUVCZY_uh-M4FHh08Wyi-6" value="PROJECT" style="swimlane;fontStyle=0;childLayout=stackLayout;horizontal=1;startSize=30;horizontalStack=0;resizeParent=1;resizeParentMax=0;resizeLast=0;collapsible=1;marginBottom=0;whiteSpace=wrap;html=1;" vertex="1" parent="1">
          <mxGeometry x="160" y="280" width="140" height="90" as="geometry" />
        </mxCell>
        <mxCell id="EUVCZY_uh-M4FHh08Wyi-7" value="&lt;u&gt;Project_ID&lt;/u&gt;" style="text;strokeColor=none;fillColor=none;align=left;verticalAlign=middle;spacingLeft=4;spacingRight=4;overflow=hidden;points=[[0,0.5],[1,0.5]];portConstraint=eastwest;rotatable=0;whiteSpace=wrap;html=1;" vertex="1" parent="EUVCZY_uh-M4FHh08Wyi-6">
          <mxGeometry y="30" width="140" height="30" as="geometry" />
        </mxCell>
        <mxCell id="EUVCZY_uh-M4FHh08Wyi-8" value="Description" style="text;strokeColor=none;fillColor=none;align=left;verticalAlign=middle;spacingLeft=4;spacingRight=4;overflow=hidden;points=[[0,0.5],[1,0.5]];portConstraint=eastwest;rotatable=0;whiteSpace=wrap;html=1;" vertex="1" parent="EUVCZY_uh-M4FHh08Wyi-6">
          <mxGeometry y="60" width="140" height="30" as="geometry" />
        </mxCell>
        <mxCell id="EUVCZY_uh-M4FHh08Wyi-10" value="Device" style="swimlane;fontStyle=0;childLayout=stackLayout;horizontal=1;startSize=26;horizontalStack=0;resizeParent=1;resizeParentMax=0;resizeLast=0;collapsible=1;marginBottom=0;align=center;fontSize=14;" vertex="1" parent="1">
          <mxGeometry x="640" y="560" width="160" height="116" as="geometry" />
        </mxCell>
        <mxCell id="EUVCZY_uh-M4FHh08Wyi-11" value="Device ID" style="text;strokeColor=none;fillColor=none;spacingLeft=4;spacingRight=4;overflow=hidden;rotatable=0;points=[[0,0.5],[1,0.5]];portConstraint=eastwest;fontSize=12;whiteSpace=wrap;html=1;fontStyle=4" vertex="1" parent="EUVCZY_uh-M4FHh08Wyi-10">
          <mxGeometry y="26" width="160" height="30" as="geometry" />
        </mxCell>
        <mxCell id="EUVCZY_uh-M4FHh08Wyi-12" value="Device Name" style="text;strokeColor=none;fillColor=none;spacingLeft=4;spacingRight=4;overflow=hidden;rotatable=0;points=[[0,0.5],[1,0.5]];portConstraint=eastwest;fontSize=12;whiteSpace=wrap;html=1;" vertex="1" parent="EUVCZY_uh-M4FHh08Wyi-10">
          <mxGeometry y="56" width="160" height="30" as="geometry" />
        </mxCell>
        <mxCell id="EUVCZY_uh-M4FHh08Wyi-13" value="Description" style="text;strokeColor=none;fillColor=none;spacingLeft=4;spacingRight=4;overflow=hidden;rotatable=0;points=[[0,0.5],[1,0.5]];portConstraint=eastwest;fontSize=12;whiteSpace=wrap;html=1;" vertex="1" parent="EUVCZY_uh-M4FHh08Wyi-10">
          <mxGeometry y="86" width="160" height="30" as="geometry" />
        </mxCell>
        <mxCell id="EUVCZY_uh-M4FHh08Wyi-14" value="TECHNICIAN" style="swimlane;fontStyle=0;childLayout=stackLayout;horizontal=1;startSize=26;horizontalStack=0;resizeParent=1;resizeParentMax=0;resizeLast=0;collapsible=1;marginBottom=0;align=center;fontSize=14;" vertex="1" parent="1">
          <mxGeometry x="640" y="280" width="160" height="86" as="geometry" />
        </mxCell>
        <mxCell id="EUVCZY_uh-M4FHh08Wyi-15" value="License #" style="text;strokeColor=none;fillColor=none;spacingLeft=4;spacingRight=4;overflow=hidden;rotatable=0;points=[[0,0.5],[1,0.5]];portConstraint=eastwest;fontSize=12;whiteSpace=wrap;html=1;" vertex="1" parent="EUVCZY_uh-M4FHh08Wyi-14">
          <mxGeometry y="26" width="160" height="30" as="geometry" />
        </mxCell>
        <mxCell id="EUVCZY_uh-M4FHh08Wyi-16" value="Restriction" style="text;strokeColor=none;fillColor=none;spacingLeft=4;spacingRight=4;overflow=hidden;rotatable=0;points=[[0,0.5],[1,0.5]];portConstraint=eastwest;fontSize=12;whiteSpace=wrap;html=1;" vertex="1" parent="EUVCZY_uh-M4FHh08Wyi-14">
          <mxGeometry y="56" width="160" height="30" as="geometry" />
        </mxCell>
        <mxCell id="EUVCZY_uh-M4FHh08Wyi-18" value="RESEARCHER" style="swimlane;fontStyle=0;childLayout=stackLayout;horizontal=1;startSize=26;horizontalStack=0;resizeParent=1;resizeParentMax=0;resizeLast=0;collapsible=1;marginBottom=0;align=center;fontSize=14;" vertex="1" parent="1">
          <mxGeometry x="400" y="280" width="160" height="86" as="geometry" />
        </mxCell>
        <mxCell id="EUVCZY_uh-M4FHh08Wyi-19" value="Rank" style="text;strokeColor=none;fillColor=none;spacingLeft=4;spacingRight=4;overflow=hidden;rotatable=0;points=[[0,0.5],[1,0.5]];portConstraint=eastwest;fontSize=12;whiteSpace=wrap;html=1;" vertex="1" parent="EUVCZY_uh-M4FHh08Wyi-18">
          <mxGeometry y="26" width="160" height="30" as="geometry" />
        </mxCell>
        <mxCell id="EUVCZY_uh-M4FHh08Wyi-20" value="Certfication" style="text;strokeColor=none;fillColor=none;spacingLeft=4;spacingRight=4;overflow=hidden;rotatable=0;points=[[0,0.5],[1,0.5]];portConstraint=eastwest;fontSize=12;whiteSpace=wrap;html=1;" vertex="1" parent="EUVCZY_uh-M4FHh08Wyi-18">
          <mxGeometry y="56" width="160" height="30" as="geometry" />
        </mxCell>
        <mxCell id="EUVCZY_uh-M4FHh08Wyi-22" value="PERSON" style="swimlane;fontStyle=0;childLayout=stackLayout;horizontal=1;startSize=26;horizontalStack=0;resizeParent=1;resizeParentMax=0;resizeLast=0;collapsible=1;marginBottom=0;align=center;fontSize=14;" vertex="1" parent="1">
          <mxGeometry x="520" y="120" width="160" height="86" as="geometry" />
        </mxCell>
        <mxCell id="EUVCZY_uh-M4FHh08Wyi-23" value="SSN" style="text;strokeColor=none;fillColor=none;spacingLeft=4;spacingRight=4;overflow=hidden;rotatable=0;points=[[0,0.5],[1,0.5]];portConstraint=eastwest;fontSize=12;whiteSpace=wrap;html=1;fontStyle=4" vertex="1" parent="EUVCZY_uh-M4FHh08Wyi-22">
          <mxGeometry y="26" width="160" height="30" as="geometry" />
        </mxCell>
        <mxCell id="EUVCZY_uh-M4FHh08Wyi-24" value="Phone Number" style="text;strokeColor=none;fillColor=none;spacingLeft=4;spacingRight=4;overflow=hidden;rotatable=0;points=[[0,0.5],[1,0.5]];portConstraint=eastwest;fontSize=12;whiteSpace=wrap;html=1;" vertex="1" parent="EUVCZY_uh-M4FHh08Wyi-22">
          <mxGeometry y="56" width="160" height="30" as="geometry" />
        </mxCell>
        <mxCell id="EUVCZY_uh-M4FHh08Wyi-33" value="" style="shape=ellipse;html=1;dashed=0;whiteSpace=wrap;aspect=fixed;perimeter=ellipsePerimeter;" vertex="1" parent="1">
          <mxGeometry x="590" y="240" width="20" height="20" as="geometry" />
        </mxCell>
        <mxCell id="EUVCZY_uh-M4FHh08Wyi-34" value="O" style="text;html=1;align=center;verticalAlign=middle;whiteSpace=wrap;rounded=0;" vertex="1" parent="1">
          <mxGeometry x="570" y="238" width="60" height="25" as="geometry" />
        </mxCell>
        <mxCell id="EUVCZY_uh-M4FHh08Wyi-35" value="" style="endArrow=none;html=1;rounded=0;" edge="1" parent="1">
          <mxGeometry width="50" height="50" relative="1" as="geometry">
            <mxPoint x="595" y="240" as="sourcePoint" />
            <mxPoint x="595" y="206" as="targetPoint" />
          </mxGeometry>
        </mxCell>
        <mxCell id="EUVCZY_uh-M4FHh08Wyi-36" value="" style="endArrow=none;html=1;rounded=0;" edge="1" parent="1">
          <mxGeometry width="50" height="50" relative="1" as="geometry">
            <mxPoint x="605" y="241" as="sourcePoint" />
            <mxPoint x="605" y="207" as="targetPoint" />
          </mxGeometry>
        </mxCell>
        <mxCell id="EUVCZY_uh-M4FHh08Wyi-37" value="" style="endArrow=none;html=1;rounded=0;exitX=0.75;exitY=0;exitDx=0;exitDy=0;entryX=0.5;entryY=0.5;entryDx=0;entryDy=0;entryPerimeter=0;" edge="1" parent="1" source="EUVCZY_uh-M4FHh08Wyi-18" target="EUVCZY_uh-M4FHh08Wyi-34">
          <mxGeometry width="50" height="50" relative="1" as="geometry">
            <mxPoint x="540" y="310" as="sourcePoint" />
            <mxPoint x="580" y="260" as="targetPoint" />
          </mxGeometry>
        </mxCell>
        <mxCell id="EUVCZY_uh-M4FHh08Wyi-38" value="" style="endArrow=none;html=1;rounded=0;entryX=0.25;entryY=0;entryDx=0;entryDy=0;" edge="1" parent="1" target="EUVCZY_uh-M4FHh08Wyi-14">
          <mxGeometry width="50" height="50" relative="1" as="geometry">
            <mxPoint x="600" y="250" as="sourcePoint" />
            <mxPoint x="730" y="210" as="targetPoint" />
          </mxGeometry>
        </mxCell>
        <mxCell id="EUVCZY_uh-M4FHh08Wyi-39" value="&lt;span style=&quot;font-size: 15px;&quot;&gt;Device Used&lt;/span&gt;&lt;br&gt;&lt;div&gt;&lt;span style=&quot;font-size: 15px;&quot;&gt;Date&lt;/span&gt;&lt;/div&gt;&lt;div&gt;&lt;span style=&quot;font-size: 15px;&quot;&gt;Time&lt;/span&gt;&lt;/div&gt;" style="rounded=1;whiteSpace=wrap;html=1;" vertex="1" parent="1">
          <mxGeometry x="405" y="560" width="150" height="60" as="geometry" />
        </mxCell>
        <mxCell id="EUVCZY_uh-M4FHh08Wyi-40" value="" style="endArrow=ERzeroToMany;html=1;rounded=0;exitX=0.5;exitY=0;exitDx=0;exitDy=0;startArrow=ERoneToMany;startFill=0;endFill=0;endSize=12;startSize=12;" edge="1" parent="1" source="EUVCZY_uh-M4FHh08Wyi-10">
          <mxGeometry width="50" height="50" relative="1" as="geometry">
            <mxPoint x="670" y="416" as="sourcePoint" />
            <mxPoint x="720" y="366" as="targetPoint" />
          </mxGeometry>
        </mxCell>
        <mxCell id="EUVCZY_uh-M4FHh08Wyi-41" value="Maintenance Date&lt;div&gt;Maintenance Time&lt;/div&gt;" style="rounded=0;whiteSpace=wrap;html=1;" vertex="1" parent="1">
          <mxGeometry x="520" y="440" width="120" height="60" as="geometry" />
        </mxCell>
        <mxCell id="EUVCZY_uh-M4FHh08Wyi-42" value="" style="endArrow=none;dashed=1;html=1;dashPattern=1 3;strokeWidth=2;rounded=0;exitX=1;exitY=0.5;exitDx=0;exitDy=0;" edge="1" parent="1" source="EUVCZY_uh-M4FHh08Wyi-41">
          <mxGeometry width="50" height="50" relative="1" as="geometry">
            <mxPoint x="670" y="510" as="sourcePoint" />
            <mxPoint x="720" y="470" as="targetPoint" />
          </mxGeometry>
        </mxCell>
        <mxCell id="EUVCZY_uh-M4FHh08Wyi-43" value="Is Maintained" style="text;html=1;align=center;verticalAlign=middle;whiteSpace=wrap;rounded=0;" vertex="1" parent="1">
          <mxGeometry x="650" y="500" width="60" height="30" as="geometry" />
        </mxCell>
        <mxCell id="EUVCZY_uh-M4FHh08Wyi-44" value="Performs Maintenance" style="text;html=1;align=center;verticalAlign=middle;whiteSpace=wrap;rounded=0;" vertex="1" parent="1">
          <mxGeometry x="730" y="410" width="60" height="30" as="geometry" />
        </mxCell>
        <mxCell id="EUVCZY_uh-M4FHh08Wyi-46" value="Works On" style="text;html=1;align=center;verticalAlign=middle;whiteSpace=wrap;rounded=0;" vertex="1" parent="1">
          <mxGeometry x="360" y="289" width="40" height="30" as="geometry" />
        </mxCell>
        <mxCell id="EUVCZY_uh-M4FHh08Wyi-47" value="Worked On By" style="text;html=1;align=center;verticalAlign=middle;whiteSpace=wrap;rounded=0;" vertex="1" parent="1">
          <mxGeometry x="295" y="330" width="60" height="30" as="geometry" />
        </mxCell>
        <mxCell id="EUVCZY_uh-M4FHh08Wyi-48" value="" style="endArrow=ERmandOne;html=1;rounded=0;startArrow=ERoneToMany;startFill=0;endFill=0;endSize=12;startSize=12;entryX=0.5;entryY=0;entryDx=0;entryDy=0;exitX=0;exitY=0.5;exitDx=0;exitDy=0;" edge="1" parent="1" source="EUVCZY_uh-M4FHh08Wyi-7" target="EUVCZY_uh-M4FHh08Wyi-2">
          <mxGeometry width="50" height="50" relative="1" as="geometry">
            <mxPoint x="100" y="330" as="sourcePoint" />
            <mxPoint x="230" y="550" as="targetPoint" />
            <Array as="points">
              <mxPoint x="110" y="325" />
            </Array>
          </mxGeometry>
        </mxCell>
        <mxCell id="EUVCZY_uh-M4FHh08Wyi-50" value="" style="endArrow=ERmandOne;html=1;rounded=0;exitX=1;exitY=0.233;exitDx=0;exitDy=0;exitPerimeter=0;endFill=0;endSize=12;startSize=12;startArrow=ERzeroToMany;startFill=0;" edge="1" parent="1">
          <mxGeometry width="50" height="50" relative="1" as="geometry">
            <mxPoint x="300" y="322.5" as="sourcePoint" />
            <mxPoint x="400" y="322.51" as="targetPoint" />
          </mxGeometry>
        </mxCell>
        <mxCell id="EUVCZY_uh-M4FHh08Wyi-51" value="" style="endArrow=none;dashed=1;html=1;dashPattern=1 3;strokeWidth=2;rounded=0;exitX=0.5;exitY=0;exitDx=0;exitDy=0;" edge="1" parent="1" source="EUVCZY_uh-M4FHh08Wyi-52">
          <mxGeometry width="50" height="50" relative="1" as="geometry">
            <mxPoint x="360" y="420" as="sourcePoint" />
            <mxPoint x="360" y="320" as="targetPoint" />
            <Array as="points" />
          </mxGeometry>
        </mxCell>
        <mxCell id="EUVCZY_uh-M4FHh08Wyi-52" value="Start Date&lt;div&gt;End Date&lt;/div&gt;" style="rounded=0;whiteSpace=wrap;html=1;" vertex="1" parent="1">
          <mxGeometry x="300" y="190" width="120" height="60" as="geometry" />
        </mxCell>
        <mxCell id="EUVCZY_uh-M4FHh08Wyi-55" value="" style="endArrow=ERzeroToOne;html=1;rounded=0;exitX=0.987;exitY=0.383;exitDx=0;exitDy=0;exitPerimeter=0;startSize=12;endSize=12;endFill=0;startArrow=ERzeroToMany;startFill=0;" edge="1" parent="1" source="EUVCZY_uh-M4FHh08Wyi-39">
          <mxGeometry width="50" height="50" relative="1" as="geometry">
            <mxPoint x="590" y="635" as="sourcePoint" />
            <mxPoint x="640" y="583" as="targetPoint" />
          </mxGeometry>
        </mxCell>
        <mxCell id="EUVCZY_uh-M4FHh08Wyi-56" value="" style="endArrow=ERone;html=1;rounded=0;entryX=0.5;entryY=1.067;entryDx=0;entryDy=0;entryPerimeter=0;exitX=0.5;exitY=0;exitDx=0;exitDy=0;endSize=12;startSize=12;startArrow=ERzeroToMany;startFill=0;endFill=0;" edge="1" parent="1" source="EUVCZY_uh-M4FHh08Wyi-39" target="EUVCZY_uh-M4FHh08Wyi-20">
          <mxGeometry width="50" height="50" relative="1" as="geometry">
            <mxPoint x="400" y="490" as="sourcePoint" />
            <mxPoint x="480" y="400" as="targetPoint" />
            <Array as="points" />
          </mxGeometry>
        </mxCell>
        <mxCell id="EUVCZY_uh-M4FHh08Wyi-58" value="Borrows" style="edgeLabel;html=1;align=center;verticalAlign=middle;resizable=0;points=[];" vertex="1" connectable="0" parent="EUVCZY_uh-M4FHh08Wyi-56">
          <mxGeometry x="0.7918" relative="1" as="geometry">
            <mxPoint y="62" as="offset" />
          </mxGeometry>
        </mxCell>
        <mxCell id="EUVCZY_uh-M4FHh08Wyi-57" value="" style="endArrow=ERzeroToOne;html=1;rounded=0;entryX=0.557;entryY=1;entryDx=0;entryDy=0;entryPerimeter=0;endSize=12;startSize=12;endFill=0;startArrow=ERzeroToMany;startFill=0;" edge="1" parent="1" target="EUVCZY_uh-M4FHh08Wyi-8">
          <mxGeometry width="50" height="50" relative="1" as="geometry">
            <mxPoint x="400" y="590" as="sourcePoint" />
            <mxPoint x="230" y="370" as="targetPoint" />
            <Array as="points">
              <mxPoint x="240" y="590" />
            </Array>
          </mxGeometry>
        </mxCell>
        <mxCell id="EUVCZY_uh-M4FHh08Wyi-60" value="Works On" style="text;html=1;align=center;verticalAlign=middle;whiteSpace=wrap;rounded=0;" vertex="1" parent="1">
          <mxGeometry x="60" y="500" width="40" height="30" as="geometry" />
        </mxCell>
        <mxCell id="EUVCZY_uh-M4FHh08Wyi-61" value="Worked On By" style="text;html=1;align=center;verticalAlign=middle;whiteSpace=wrap;rounded=0;" vertex="1" parent="1">
          <mxGeometry x="120" y="380" width="60" height="30" as="geometry" />
        </mxCell>
        <mxCell id="EUVCZY_uh-M4FHh08Wyi-62" value="Jane Aldakkour" style="text;html=1;align=center;verticalAlign=middle;whiteSpace=wrap;rounded=0;" vertex="1" parent="1">
          <mxGeometry x="680" y="20" width="120" height="60" as="geometry" />
        </mxCell>
      </root>
    </mxGraphModel>
  </diagram>
</mxfile>
